<?xml version="1.0" encoding="UTF-8"?>
<svg id="Capa_2" data-name="Capa 2" xmlns="http://www.w3.org/2000/svg" xmlns:xlink="http://www.w3.org/1999/xlink" viewBox="0 0 21.99 17.47">
  <defs>
    <style>
      .cls-1 {
        fill: url(#Degradado_sin_nombre_21);
      }
    </style>
    <linearGradient id="Degradado_sin_nombre_21" data-name="Degradado sin nombre 21" x1="0" y1="8.73" x2="21.99" y2="8.73" gradientUnits="userSpaceOnUse">
      <stop offset="0" stop-color="#a436d2"/>
      <stop offset="1" stop-color="#9146ff"/>
    </linearGradient>
  </defs>
  <g id="Capa_1-2" data-name="Capa 1">
    <path class="cls-1" d="M18.47,0H3.52C1.58,0,0,1.58,0,3.52v8.73c0,2.87,2.34,5.21,5.21,5.21h11.58c2.87,0,5.21-2.34,5.21-5.21V3.52c0-1.94-1.58-3.52-3.52-3.52ZM17.88,2.33l-5.74,6.58c-.29.34-.7.52-1.15.52s-.85-.19-1.15-.52L4.11,2.33h13.77ZM16.79,15.13H5.21c-1.59,0-2.88-1.29-2.88-2.88V3.84l5.76,6.6c.73.84,1.79,1.32,2.9,1.32s2.17-.48,2.9-1.32l5.76-6.6v8.42c0,1.59-1.29,2.88-2.88,2.88Z"/>
  </g>
</svg>