<?xml version="1.0" encoding="UTF-8"?>
<svg id="Capa_2" data-name="Capa 2" xmlns="http://www.w3.org/2000/svg" xmlns:xlink="http://www.w3.org/1999/xlink" viewBox="0 0 102.96 109.24">
  <defs>
    <style>
      .cls-1 {
        fill: url(#Degradado_sin_nombre_61);
      }
    </style>
    <linearGradient id="Degradado_sin_nombre_61" data-name="Degradado sin nombre 61" x1="0" y1="54.62" x2="102.96" y2="54.62" gradientUnits="userSpaceOnUse">
      <stop offset="0" stop-color="aqua"/>
      <stop offset="1" stop-color="#752994"/>
    </linearGradient>
  </defs>
  <g id="Capa_1-2" data-name="Capa 1">
    <path class="cls-1" d="M51.48,0C23.05,0,0,23.01,0,51.4c0,22.7,15.02,37.78,35.19,48.94,1.9,1.05,0,8.9,0,8.9h33.02s-1.98-8.05,0-9.05c18.56-9.38,34.75-26.16,34.75-48.7,0-28.38-23.05-51.49-51.48-51.49ZM74.55,38.98l7.6-8.33c.39-.43,1.06-.46,1.49-.07s.46,1.06.07,1.49l-7.6,8.33c-.39.43-1.06.46-1.49.07-.43-.39-.46-1.06-.07-1.49ZM21.11,30.58c.43-.39,1.1-.36,1.49.07l7.6,8.33c.39.43.36,1.1-.07,1.49-.43.39-1.1.36-1.49-.07l-7.6-8.33c-.39-.43-.36-1.1.07-1.49ZM10.41,49.68c.12-.57.68-.94,1.25-.82l11.04,2.28c.57.12.94.68.82,1.25-.12.57-.68.94-1.25.82l-11.04-2.28c-.57-.12-.94-.68-.82-1.25ZM24.68,67.85l-11.02,2.39c-.57.12-1.13-.24-1.26-.81-.12-.57.24-1.13.81-1.26l11.02-2.39c.57-.12,1.13.24,1.26.81.12.57-.24,1.13-.81,1.26ZM63.97,85.25c0,1.85.16,2.99.45,5.99h-25.88c.29-3,.45-4.02.45-5.87,0-11.75-6.15-21.92-14.44-24.65,3.36-2.39,9.41-6.91,13.51-14.49,8.98-16.61,8.98-33.99,8.98-33.99h2.86l-.27,36.48c-4.84.58-5.18,6.67-5.18,6.67-.11,3.95,2.47,7.1,6.42,7.1s6.45-3.23,6.45-7.18c0-3.36-2.34-5.59-5.25-6.37l-1.05-36.7h3.12s1.79,17.3,10.77,33.91c4.1,7.58,10.14,12.12,13.51,14.51-8.29,2.73-14.44,12.84-14.44,24.59ZM91.64,69.44c-.12.57-.68.93-1.26.81l-11.02-2.39c-.57-.12-.93-.69-.81-1.26.12-.57.69-.93,1.26-.81l11.02,2.39c.57.12.93.69.81,1.26ZM91.72,50.93l-11.04,2.28c-.57.12-1.13-.25-1.25-.82s.25-1.13.82-1.25l11.04-2.28c.57-.12,1.13.25,1.25.82.12.57-.25,1.13-.82,1.25Z"/>
  </g>
</svg>