<?xml version="1.0" encoding="UTF-8"?>
<svg id="Capa_2" data-name="Capa 2" xmlns="http://www.w3.org/2000/svg" xmlns:xlink="http://www.w3.org/1999/xlink" viewBox="0 0 23.06 23.06">
  <defs>
    <style>
      .cls-1 {
        fill: url(#Degradado_sin_nombre_14-2);
      }

      .cls-2 {
        fill: url(#Degradado_sin_nombre_14);
      }

      .cls-3 {
        fill: url(#Degradado_sin_nombre_14-3);
      }
    </style>
    <linearGradient id="Degradado_sin_nombre_14" data-name="Degradado sin nombre 14" x1="6.25" y1="-121.13" x2="27.93" y2="-142.82" gradientTransform="translate(0 -127.05) scale(1 -1)" gradientUnits="userSpaceOnUse">
      <stop offset="0" stop-color="#ffe185"/>
      <stop offset=".21" stop-color="#ffbb36"/>
      <stop offset=".38" stop-color="#ff5176"/>
      <stop offset=".52" stop-color="#f63395"/>
      <stop offset=".74" stop-color="#a436d2"/>
      <stop offset="1" stop-color="#5f4eed"/>
    </linearGradient>
    <linearGradient id="Degradado_sin_nombre_14-2" data-name="Degradado sin nombre 14" x1=".21" y1="-127.17" x2="21.9" y2="-148.85" xlink:href="#Degradado_sin_nombre_14"/>
    <linearGradient id="Degradado_sin_nombre_14-3" data-name="Degradado sin nombre 14" x1=".16" y1="-127.21" x2="21.85" y2="-148.9" xlink:href="#Degradado_sin_nombre_14"/>
  </defs>
  <g id="Capa_1-2" data-name="Capa 1">
    <path class="cls-2" d="M17.64,4.12c-.75,0-1.35.61-1.35,1.35s.61,1.35,1.35,1.35,1.35-.61,1.35-1.35-.61-1.35-1.35-1.35Z"/>
    <path class="cls-1" d="M11.63,5.85c-3.13,0-5.68,2.55-5.68,5.68s2.55,5.68,5.68,5.68,5.68-2.55,5.68-5.68c0-3.13-2.55-5.68-5.68-5.68ZM11.63,15.17c-2.01,0-3.64-1.63-3.64-3.64s1.63-3.64,3.64-3.64,3.64,1.63,3.64,3.64c0,2.01-1.63,3.64-3.64,3.64Z"/>
    <path class="cls-3" d="M16.14,23.06H6.93c-3.82,0-6.93-3.11-6.93-6.93V6.93C0,3.11,3.11,0,6.93,0h9.21c3.82,0,6.93,3.11,6.93,6.93v9.21c0,3.82-3.11,6.93-6.93,6.93ZM6.93,2.17c-2.62,0-4.76,2.13-4.76,4.76v9.21c0,2.62,2.13,4.76,4.76,4.76h9.21c2.62,0,4.76-2.13,4.76-4.76V6.93c0-2.62-2.13-4.76-4.76-4.76H6.93Z"/>
  </g>
</svg>