<?xml version="1.0" encoding="UTF-8"?>
<svg id="Capa_2" data-name="Capa 2" xmlns="http://www.w3.org/2000/svg" xmlns:xlink="http://www.w3.org/1999/xlink" viewBox="0 0 386.78 386.78">
  <defs>
    <style>
      .cls-1 {
        fill: url(#Degradado_sin_nombre_61-3);
      }

      .cls-2 {
        fill: url(#Degradado_sin_nombre_61);
      }

      .cls-3 {
        fill: url(#Degradado_sin_nombre_61-5);
      }

      .cls-4 {
        fill: url(#Degradado_sin_nombre_61-2);
      }

      .cls-5 {
        fill: url(#Degradado_sin_nombre_61-4);
      }
    </style>
    <linearGradient id="Degradado_sin_nombre_61" data-name="Degradado sin nombre 61" x1="259.76" y1="130.54" x2="265.44" y2="130.54" gradientUnits="userSpaceOnUse">
      <stop offset="0" stop-color="aqua"/>
      <stop offset="1" stop-color="#752994"/>
    </linearGradient>
    <linearGradient id="Degradado_sin_nombre_61-2" data-name="Degradado sin nombre 61" x1="291.85" y1="190.82" x2="297.54" y2="190.82" xlink:href="#Degradado_sin_nombre_61"/>
    <linearGradient id="Degradado_sin_nombre_61-3" data-name="Degradado sin nombre 61" x1="261.8" y1="252.13" x2="267.49" y2="252.13" xlink:href="#Degradado_sin_nombre_61"/>
    <linearGradient id="Degradado_sin_nombre_61-4" data-name="Degradado sin nombre 61" x1="54.83" y1="195.91" x2="331.95" y2="195.91" xlink:href="#Degradado_sin_nombre_61"/>
    <linearGradient id="Degradado_sin_nombre_61-5" data-name="Degradado sin nombre 61" x1="0" y1="193.39" x2="386.78" y2="193.39" xlink:href="#Degradado_sin_nombre_61"/>
  </defs>
  <g id="Capa_1-2" data-name="Capa 1">
    <g>
      <path class="cls-2" d="M262.55,127.7c-1.57.03-2.82,1.32-2.79,2.89.03,1.57,1.32,2.82,2.89,2.79,1.57-.03,2.82-1.32,2.79-2.89-.03-1.57-1.32-2.82-2.89-2.79Z"/>
      <path class="cls-4" d="M294.74,193.66c1.57-.03,2.82-1.32,2.79-2.89-.03-1.57-1.32-2.82-2.89-2.79-1.57.03-2.82,1.32-2.79,2.89.03,1.57,1.32,2.82,2.89,2.79Z"/>
      <path class="cls-1" d="M264.69,254.98c1.57-.03,2.82-1.32,2.79-2.89-.03-1.57-1.32-2.82-2.89-2.79-1.57.03-2.82,1.32-2.79,2.89.03,1.57,1.32,2.82,2.89,2.79Z"/>
      <path class="cls-5" d="M291.13,122.03c-15.31-9.56-32.15-13.81-50.04-13.98-4.28-.04-6.07-1.33-5.45-5.61.66-4.58.88-9.27,1.98-13.74,1.62-6.59,5.17-11.66,12.86-13.25-11.51,0-23.02-.27-34.52.06-20.61.59-41.57-.65-61.74,2.73-70.05,11.73-113.5,80.44-95.21,149.01,14.75,55.28,62.99,86.85,112.83,88.7,25.44.94,50.94.3,76.42.36.73,0,1.47-.18,3.07-.4-9.87-2.54-12.95-5.61-14.51-14.6-.73-4.22-.75-8.55-1.18-12.83-.38-3.68,1.37-4.56,4.82-4.73,6.68-.31,13.41-.78,19.99-1.94,35.44-6.26,63.33-34.04,69.97-69.39,6.72-35.75-8.75-71.33-39.27-90.39ZM224.73,288.22c-1.05,5.69-1.61,11.6-3.67,16.92-2.31,5.95-7.52,9.61-14.06,9.83-35.92,1.19-67.77-8.5-92.32-36.14-18.8-21.17-27.48-46.56-28.93-74.52-1.76-33.9,6.14-64.93,28.84-91.04,19-21.84,43.55-33.01,72.09-35.78,6.49-.63,13.06-.79,19.58-.56,9.26.32,14.49,4.77,17.09,13.65.29.99.5,2,.71,3.01,2.77,13.29,1.97,14.3-11.29,14.3-20.93,0-41.85,0-62.78,0,6.11,2.74,8.3,7.91,8.61,13.76.55,10.29.73,20.61.75,30.92.08,36.3.04,72.61-.02,108.91,0,3.6-.3,7.22-.83,10.78-.77,5.19-2.67,9.7-8.52,11.72,14.82,0,29.65,0,44.47,0,8.6,0,17.21.07,25.81-.09,3.23-.06,5.12.89,4.49,4.34ZM302.15,234.83c-11.83,26.87-32.58,42.29-61.4,47.25-4.52.78-5.19-1.16-5.18-4.99.1-27.77.06-55.53.06-83.3.1-.36.18-.72.22-1.1l6.65-.11,7.95,7.68.28,16.87c0,.23.1.46.27.62l7.81,7.56.08,4.67-4.33,4.48c-.38-.17-.79-.28-1.23-.27-1.57.03-2.82,1.32-2.79,2.89.03,1.57,1.32,2.82,2.89,2.79,1.57-.03,2.82-1.32,2.79-2.89,0-.49-.15-.93-.37-1.33l4.56-4.72c.16-.17.25-.39.25-.63l-.09-5.4c0-.23-.1-.46-.27-.62l-7.81-7.56-.25-14.75,9.41,9.1.1,5.86c0,.23.1.46.27.62l7.81,7.56.08,4.67-6.23,6.45c-.16.17-.25.39-.25.63l.14,8.49c-3.33.53-5.86,3.44-5.8,6.9.06,3.79,3.2,6.82,6.99,6.76,3.79-.06,6.83-3.2,6.76-6.99-.06-3.52-2.77-6.38-6.19-6.72l-.14-8.1,6.23-6.45c.16-.17.25-.39.25-.63l-.09-5.4c0-.23-.1-.46-.27-.62l-7.81-7.56-.09-5.5,9.48-9.8.26,15.5c0,.23.1.46.27.62l7.81,7.56.08,4.67-4.33,4.48c-.38-.17-.79-.28-1.23-.27-1.57.03-2.82,1.32-2.8,2.89.03,1.57,1.32,2.82,2.89,2.79,1.57-.03,2.82-1.32,2.79-2.89,0-.49-.15-.93-.37-1.33l4.56-4.72c.16-.17.25-.39.25-.63l-.09-5.4c0-.23-.1-.46-.27-.62l-7.81-7.56-.28-16.9,7.3-7.55,5.98-.1c.49,3.37,3.42,5.94,6.91,5.88,3.79-.06,6.82-3.2,6.76-6.99-.06-3.79-3.2-6.82-6.99-6.76-3.49.06-6.34,2.73-6.71,6.11l-5.98.1-7.55-7.3-.28-16.9,7.55-7.81c.16-.17.25-.39.25-.63l-.09-5.4c0-.23-.1-.46-.27-.62l-4.72-4.56c.21-.4.33-.86.32-1.34-.03-1.57-1.32-2.82-2.89-2.79-1.57.03-2.82,1.32-2.8,2.89.03,1.57,1.32,2.82,2.89,2.79.44,0,.85-.12,1.22-.31l4.48,4.33.08,4.67-7.55,7.81c-.16.17-.25.39-.25.63l.26,15.51-9.8-9.48-.09-5.5,7.55-7.81c.16-.17.25-.39.25-.63l-.09-5.4c0-.23-.1-.46-.27-.62l-6.44-6.23-.14-8.1c3.41-.45,6.02-3.41,5.97-6.93-.06-3.79-3.2-6.82-6.99-6.76-3.79.06-6.82,3.2-6.76,6.99.06,3.47,2.68,6.29,6.03,6.7l.14,8.49c0,.23.1.46.27.62l6.44,6.23.08,4.67-7.55,7.81c-.16.17-.25.39-.25.63l.1,5.86-9.1,9.41-.25-14.75,7.56-7.81c.16-.17.25-.39.25-.63l-.09-5.4c0-.23-.1-.46-.27-.62l-4.72-4.56c.21-.4.33-.86.32-1.34-.03-1.57-1.32-2.82-2.89-2.79-1.57.03-2.82,1.32-2.79,2.89.03,1.57,1.32,2.82,2.89,2.79.44,0,.85-.12,1.22-.31l4.48,4.33.08,4.67-7.56,7.81c-.16.17-.25.39-.25.63l.28,16.88-7.68,7.95-6.65.11c-.04-.29-.11-.58-.19-.86,0-1.66,0-3.38,0-5.33h-44.84v9.42c8.24,0,16.43-.04,24.62.01,3.56.02,5.78-.09,7.16.13.45,1.2,1.21,2.25,2.2,3.02.07,1.38-.03,3.36-.02,6.2.06,24.62-.08,49.23.11,73.85.04,4.52-1.3,6.09-5.84,5.91-8.08-.32-16.18-.09-24.27-.19-10.26-.13-15.5-4.79-16.87-14.99-.3-2.21-.24-4.47-.24-6.7-.01-43.73,0-87.45,0-131.18,0-2.24-.03-4.49.22-6.7,1.19-10.53,6.04-14.87,16.62-14.91,8.44-.03,16.87.11,25.3-.04,3.75-.07,5.11,1.24,5.06,5.11-.18,15.49.09,30.99-.18,46.48-.08,4.57,1.72,5.39,5.74,5.39,3.97,0,5.37-1.14,5.3-5.28-.23-14.63-.09-29.26-.09-43.9,0-2.02,0-4.05,0-6.91,12.53.9,23.27,4.24,33.2,9.98,24.75,14.32,36.84,36.78,40.38,64.37,2.25,17.58.11,34.74-7.06,51.02ZM280.04,191.32l-8.04,8.31-3.17-3.07-.18-10.62,3.07-3.17,8.31,8.04c-.02.08-.05.16-.05.25,0,.09.03.17.06.25ZM267.61,197.83l3.17,3.07-8.29,8.57-8.57-8.29,3.07-3.17,10.62-.18ZM257.92,187.22l8.42-.14.14,8.42-8.42.14-.14-8.42ZM267.39,184.72l-10.62.18-3.17-3.07,8.29-8.57,8.57,8.29-3.07,3.17ZM255.55,186.16l.18,10.62-3.07,3.17-.61-.59c-.08-.12-.18-.22-.31-.3l-7.65-7.4,7.4-7.65c.12-.08.22-.18.3-.31l.59-.61,3.17,3.07ZM264.56,247.02c2.82-.05,5.16,2.21,5.21,5.03.05,2.82-2.21,5.16-5.03,5.2-2.82.05-5.16-2.21-5.2-5.03-.05-2.82,2.21-5.16,5.03-5.2ZM289.58,190.9c-.05-2.82,2.21-5.16,5.03-5.2,2.82-.05,5.16,2.21,5.2,5.03.05,2.82-2.21,5.16-5.03,5.2-2.82.05-5.16-2.21-5.2-5.03ZM262.69,135.66c-2.82.05-5.16-2.21-5.2-5.03-.05-2.82,2.21-5.16,5.03-5.2,2.82-.05,5.16,2.21,5.21,5.03s-2.21,5.16-5.03,5.2Z"/>
      <path class="cls-3" d="M330.14,56.64C293.61,20.12,245.05,0,193.39,0S93.17,20.12,56.64,56.64C20.12,93.17,0,141.73,0,193.39s20.12,100.22,56.64,136.75c36.53,36.53,85.09,56.64,136.75,56.64s100.22-20.12,136.75-56.64c36.53-36.53,56.64-85.09,56.64-136.75s-20.12-100.22-56.64-136.75ZM193.39,359.71c-91.71,0-166.32-74.61-166.32-166.32S101.68,27.07,193.39,27.07s166.32,74.61,166.32,166.32-74.61,166.32-166.32,166.32Z"/>
    </g>
  </g>
</svg>