<?xml version="1.0" encoding="UTF-8"?>
<svg id="Capa_2" data-name="Capa 2" xmlns="http://www.w3.org/2000/svg" viewBox="0 0 384.09 375.39">
  <defs>
    <style>
      .cls-1 {
        stroke: #6f7082;
      }

      .cls-1, .cls-2, .cls-3, .cls-4 {
        fill: none;
        stroke-miterlimit: 10;
      }

      .cls-5 {
        fill: #d9dfe6;
      }

      .cls-2 {
        stroke-width: 2.19px;
      }

      .cls-2, .cls-3 {
        stroke-dasharray: 2.19 1.09;
      }

      .cls-2, .cls-4 {
        stroke: #42444f;
      }

      .cls-6 {
        fill: #ccd0d6;
      }

      .cls-7 {
        fill: #f8b85e;
      }

      .cls-8, .cls-9 {
        fill: #35363b;
      }

      .cls-3 {
        stroke: #c8ccd1;
        stroke-width: .75px;
      }

      .cls-10 {
        fill: #fff;
      }

      .cls-11 {
        fill: #55c0ed;
      }

      .cls-12 {
        fill: #bdc1c9;
      }

      .cls-13 {
        fill: #ffda58;
      }

      .cls-14 {
        fill: #dbdfe6;
      }

      .cls-15 {
        opacity: .31;
      }

      .cls-16 {
        fill: #d2d6db;
      }

      .cls-17, .cls-18 {
        fill: #6f7082;
      }

      .cls-19 {
        fill: #27282b;
      }

      .cls-4 {
        stroke-width: .91px;
      }

      .cls-9 {
        opacity: .26;
      }

      .cls-9, .cls-18, .cls-20 {
        isolation: isolate;
      }

      .cls-18 {
        font-size: 35.82px;
      }

      .cls-18, .cls-20 {
        font-family: BebasNeueBook, 'Bebas Neue';
      }

      .cls-20 {
        font-size: 51.76px;
      }

      .cls-20, .cls-21 {
        fill: #42444f;
      }

      .cls-22 {
        fill: #d7dbe0;
      }

      .cls-23 {
        fill: #e6eaf0;
      }

      .cls-24 {
        fill: #c8ccd1;
      }

      .cls-25 {
        fill: #ba0034;
      }

      .cls-26 {
        fill: #34909d;
      }
    </style>
  </defs>
  <g id="Capa_1-2" data-name="Capa 1">
    <g id="Objects">
      <g>
        <g>
          <g>
            <g id="cloud">
              <path class="cls-23" d="M116.45,148.85c0,5.3-4.3,9.6-9.61,9.6H21.91c-11.09,0-20.08-8.98-20.08-20.07s8.99-20.07,20.08-20.07c1.5,0,2.96.17,4.36.48,2.37-15.29,14.82-27.26,30.35-28.87,1.18-.14,2.39-.2,3.61-.2,8.96,0,17.11,3.43,23.23,9.04,6.85,6.28,11.14,15.31,11.14,25.33,0,1.49-.11,2.95-.29,4.39,4.74,1.95,8.31,6.17,9.34,11.32,1-.36,2.07-.56,3.19-.56,5.31,0,9.61,4.3,9.61,9.61Z"/>
            </g>
            <path class="cls-24" d="M83.46,98.76l-5.49,59.69h-27.65l6.3-68.53c1.18-.14,2.39-.2,3.61-.2,8.96,0,17.11,3.43,23.23,9.04Z"/>
          </g>
          <g>
            <path class="cls-3" d="M158.83,58.64v-25.18c0-4.28,3.47-7.75,7.75-7.75h117.65c4.28,0,7.75,3.47,7.75,7.75v51.89"/>
            <line class="cls-3" x1="183.48" y1="57.19" x2="183.48" y2="25.71"/>
            <line class="cls-3" x1="206.9" y1="57.19" x2="206.9" y2="25.71"/>
            <line class="cls-3" x1="229.84" y1="57.19" x2="229.84" y2="25.71"/>
          </g>
          <g id="Website">
            <g>
              <g>
                <path class="cls-17" d="M250.62,66.76v218.88c0,5.28-4.29,9.57-9.58,9.57H69.17c-5.29,0-9.58-4.29-9.58-9.57V66.76c0-5.28,4.29-9.57,9.58-9.57h171.88c5.29,0,9.58,4.29,9.58,9.57Z"/>
                <g>
                  <path class="cls-26" d="M234.77,66.93c0,1.95,1.58,3.53,3.53,3.53s3.53-1.58,3.53-3.53-1.58-3.53-3.53-3.53c-1.95,0-3.53,1.58-3.53,3.53Z"/>
                  <path class="cls-13" d="M224.94,66.93c0,1.95,1.58,3.53,3.53,3.53s3.53-1.58,3.53-3.53-1.58-3.53-3.53-3.53-3.53,1.58-3.53,3.53Z"/>
                  <path class="cls-25" d="M215.11,66.93c0,1.95,1.58,3.53,3.53,3.53s3.53-1.58,3.53-3.53-1.58-3.53-3.53-3.53-3.53,1.58-3.53,3.53Z"/>
                </g>
              </g>
              <rect class="cls-21" x="59.59" y="183.18" width="191.04" height="58.9"/>
              <g>
                <rect class="cls-21" x="220.88" y="76.89" width="19.61" height="4.21"/>
                <rect class="cls-21" x="197.27" y="76.89" width="19.61" height="4.21"/>
                <rect class="cls-21" x="173.67" y="76.89" width="19.61" height="4.21"/>
                <rect class="cls-21" x="150.07" y="76.89" width="19.61" height="4.21"/>
              </g>
              <circle class="cls-23" cx="78.98" cy="78.54" r="9.54"/>
              <path class="cls-10" d="M236.67,151.86H73.54c-2.01,0-3.63-1.63-3.63-3.63v-50.36c0-2.01,1.63-3.63,3.63-3.63h163.13c2.01,0,3.63,1.63,3.63,3.63v50.36c0,2.01-1.63,3.63-3.63,3.63Z"/>
              <g>
                <polygon class="cls-11" points="225.76 116.41 225.76 132.72 233.92 124.56 225.76 116.41"/>
                <polygon class="cls-11" points="76.3 124.56 84.45 132.72 84.45 116.41 76.3 124.56"/>
              </g>
              <g>
                <rect class="cls-10" x="114.51" y="156.56" width="125.8" height="3.01"/>
                <rect class="cls-10" x="114.51" y="162.62" width="125.8" height="3.01"/>
                <rect class="cls-10" x="114.51" y="168.67" width="85.27" height="3.01"/>
              </g>
              <g>
                <rect class="cls-10" x="69.62" y="156.56" width="37.64" height="3.01"/>
                <rect class="cls-10" x="69.62" y="162.73" width="37.64" height="3.01"/>
                <rect class="cls-10" x="69.62" y="168.9" width="37.64" height="3.01"/>
                <rect class="cls-10" x="69.62" y="175.07" width="23.66" height="3.01"/>
              </g>
              <g>
                <rect class="cls-11" x="69.62" y="248.86" width="82.89" height="3.01"/>
                <rect class="cls-11" x="69.62" y="255.03" width="82.89" height="3.01"/>
                <rect class="cls-10" x="69.62" y="261.2" width="82.89" height="3.01"/>
                <rect class="cls-10" x="69.62" y="267.37" width="52.1" height="3.01"/>
              </g>
              <g>
                <rect class="cls-10" x="157.93" y="248.86" width="82.89" height="3.01"/>
                <rect class="cls-10" x="157.93" y="255.03" width="81.78" height="3.01"/>
                <rect class="cls-10" x="157.93" y="261.2" width="41.46" height="3.01"/>
              </g>
              <path class="cls-10" d="M105,235.9h-33.08c-1.34,0-2.42-1.08-2.42-2.42v-42.87c0-1.34,1.08-2.42,2.42-2.42h33.08c1.34,0,2.42,1.08,2.42,2.42v42.87c0,1.34-1.08,2.42-2.42,2.42Z"/>
              <path class="cls-10" d="M149.35,235.9h-33.08c-1.34,0-2.42-1.08-2.42-2.42v-42.87c0-1.34,1.09-2.42,2.42-2.42h33.08c1.34,0,2.42,1.08,2.42,2.42v42.87c0,1.34-1.08,2.42-2.42,2.42Z"/>
              <path class="cls-10" d="M193.7,235.9h-33.08c-1.34,0-2.42-1.08-2.42-2.42v-42.87c0-1.34,1.08-2.42,2.42-2.42h33.08c1.34,0,2.42,1.08,2.42,2.42v42.87c0,1.34-1.09,2.42-2.42,2.42Z"/>
              <path class="cls-10" d="M238.05,235.9h-33.08c-1.34,0-2.42-1.08-2.42-2.42v-42.87c0-1.34,1.08-2.42,2.42-2.42h33.08c1.34,0,2.42,1.08,2.42,2.42v42.87c0,1.34-1.08,2.42-2.42,2.42Z"/>
              <g>
                <rect class="cls-21" x="80.49" y="224.02" width="22.85" height="2.96"/>
                <rect class="cls-21" x="80.49" y="229.1" width="15.44" height="2.96"/>
              </g>
              <g>
                <rect class="cls-21" x="124.4" y="224.02" width="22.85" height="2.96"/>
                <rect class="cls-21" x="124.4" y="229.1" width="15.44" height="2.96"/>
              </g>
              <g>
                <rect class="cls-21" x="168.31" y="224.02" width="22.85" height="2.96"/>
                <rect class="cls-21" x="168.31" y="229.1" width="15.44" height="2.96"/>
              </g>
              <g>
                <rect class="cls-21" x="212.22" y="224.02" width="22.85" height="2.96"/>
                <rect class="cls-21" x="212.22" y="229.1" width="15.44" height="2.96"/>
              </g>
              <path class="cls-23" d="M250.62,276.89v8.75c0,5.28-4.29,9.57-9.58,9.57H69.17c-5.29,0-9.58-4.29-9.58-9.57v-8.75h191.04Z"/>
              <g>
                <rect class="cls-21" x="125.83" y="280.94" width="59.1" height="3.22"/>
                <rect class="cls-21" x="141.5" y="287.03" width="27.76" height="3.22"/>
              </g>
            </g>
          </g>
          <g id="Artwork_4" data-name="Artwork 4" class="cls-15">
            <path class="cls-8" d="M194.9,158.65h55.73v114.23h-55.73c-3.71,0-6.72-3.01-6.72-6.72v-100.79c0-3.71,3.01-6.72,6.72-6.72Z"/>
          </g>
          <g id="gear">
            <path class="cls-21" d="M323.03,141.85h0c-1.47-.46-1.68-2.46-.34-3.22h0c1.67-.95.84-3.51-1.07-3.29-1.53.18-2.54-1.56-1.62-2.8,1.14-1.55-.66-3.55-2.32-2.57h0c-1.33.78-2.95-.4-2.62-1.9h0c.42-1.88-2.04-2.97-3.16-1.41h0c-.9,1.26-2.86.84-3.17-.67h0c-.38-1.88-3.08-1.88-3.46,0h0c-.31,1.51-2.27,1.93-3.17.67h0c-1.12-1.57-3.58-.47-3.16,1.41h0c.33,1.51-1.29,2.69-2.62,1.9-1.66-.98-3.46,1.02-2.32,2.57h0c.92,1.24-.09,2.98-1.62,2.8h0c-1.91-.22-2.74,2.34-1.07,3.29h0c1.34.76,1.13,2.76-.34,3.22h0c-1.83.58-1.55,3.26.36,3.44h0c1.54.15,2.16,2.06,1,3.08-1.44,1.27-.09,3.61,1.73,3h0c1.46-.49,2.81,1,2.17,2.41h0c-.8,1.75,1.38,3.33,2.8,2.03h0c1.14-1.04,2.97-.23,2.96,1.32h0c-.02,1.92,2.62,2.48,3.39.72.61-1.41,2.62-1.41,3.24,0,.77,1.76,3.4,1.2,3.38-.72h0c-.01-1.54,1.82-2.36,2.96-1.32h0c1.42,1.3,3.6-.28,2.8-2.03h0c-.64-1.4.7-2.9,2.17-2.41h0c1.82.61,3.17-1.72,1.73-3h0c-1.16-1.02-.54-2.93,1-3.08h0c1.91-.18,2.19-2.86.36-3.44ZM307.01,151.8c-5.56,0-10.07-4.51-10.07-10.07s4.51-10.07,10.07-10.07,10.07,4.51,10.07,10.07-4.51,10.07-10.07,10.07Z"/>
          </g>
          <g>
            <g id="gear-2" data-name="gear">
              <path class="cls-23" d="M293.81,157.22c-1.18-.37-1.35-1.97-.27-2.59.5-.28.73-.75.73-1.21,0-.77-.63-1.54-1.59-1.43-.9.1-1.58-.62-1.58-1.41,0-.28.08-.58.28-.84.92-1.25-.53-2.85-1.86-2.07-.23.14-.48.2-.72.2-.85,0-1.59-.79-1.39-1.73.03-.12.04-.23.04-.34,0-1.29-1.75-1.95-2.58-.79-.29.41-.72.59-1.14.59-.63,0-1.25-.41-1.4-1.13-.15-.76-.77-1.14-1.39-1.14s-1.24.38-1.39,1.14c-.15.72-.77,1.13-1.4,1.13-.43,0-.86-.18-1.15-.59-.3-.42-.72-.6-1.13-.6-.82,0-1.63.72-1.41,1.73.02.11.04.22.04.32,0,1.05-1.17,1.78-2.14,1.21-1.33-.78-2.78.82-1.86,2.07.2.26.28.55.28.83,0,.79-.67,1.52-1.58,1.42-.06,0-.12,0-.18,0-.25,0-.47.06-.66.17-.89.47-1.09,1.88-.02,2.48.49.28.72.76.72,1.24,0,.57-.34,1.15-.99,1.35-.68.21-1,.78-1,1.35,0,.67.45,1.34,1.29,1.42.79.08,1.28.74,1.28,1.42,0,.38-.15.76-.48,1.05-1.16,1.03-.08,2.9,1.39,2.41.16-.05.31-.08.46-.08.3,0,.58.1.81.27.52.37.78,1.07.47,1.74-.09.21-.14.41-.14.61,0,1.12,1.42,1.92,2.39,1.03.28-.26.62-.38.95-.38.74,0,1.44.58,1.43,1.44v.02c0,1.52,2.1,1.96,2.72.56.49-1.14,2.11-1.14,2.6,0,.62,1.41,2.73.96,2.72-.58h0c0-1.24,1.46-1.9,2.38-1.06.29.27.62.38.94.38.94,0,1.79-.97,1.31-2.02-.09-.2-.13-.4-.13-.59,0-.91.9-1.66,1.87-1.34.16.06.32.08.48.08.77,0,1.36-.65,1.39-1.37.03-.39-.11-.8-.48-1.12-.33-.29-.48-.67-.48-1.05,0-.68.49-1.34,1.28-1.42.84-.08,1.29-.75,1.29-1.42,0-.57-.32-1.14-1-1.35ZM280.94,165.22c-1.07,0-2.1-.21-3.03-.58-2.97-1.2-5.06-4.11-5.06-7.51,0-2.09.8-4,2.09-5.43,1.48-1.63,3.62-2.66,6-2.66,1.98,0,3.79.7,5.19,1.89,1.77,1.47,2.9,3.7,2.9,6.2,0,3-1.63,5.62-4.06,7.02-1.18.68-2.56,1.07-4.03,1.07Z"/>
            </g>
            <g>
              <path class="cls-16" d="M277.91,164.64l-6.09.42c-.23-.17-.51-.27-.81-.27-.15,0-.3.03-.46.08-1.47.49-2.55-1.38-1.39-2.41.33-.29.48-.67.48-1.05,0-.68-.49-1.34-1.28-1.42-.84-.08-1.29-.75-1.29-1.42,0-.57.32-1.14,1-1.35.65-.2.99-.78.99-1.35,0-.48-.23-.96-.72-1.24-1.07-.6-.87-2.01.02-2.48l6.58-.45c-1.29,1.43-2.09,3.34-2.09,5.43,0,3.4,2.09,6.31,5.06,7.51Z"/>
              <path class="cls-16" d="M294.81,158.57c0,.67-.45,1.34-1.29,1.42-.79.08-1.28.74-1.28,1.42,0,.38.15.76.48,1.05.37.32.51.73.48,1.12l-8.23.57c2.43-1.4,4.06-4.02,4.06-7.02,0-2.5-1.13-4.73-2.9-6.2l4.97-.35c0,.79.68,1.51,1.58,1.41.96-.11,1.59.66,1.59,1.43,0,.46-.23.93-.73,1.21-1.08.62-.91,2.22.27,2.59.68.21,1,.78,1,1.35Z"/>
            </g>
          </g>
          <g id="Artwork_4-2" data-name="Artwork 4">
            <g>
              <path class="cls-23" d="M377,267.45h-176.37c-3.71,0-6.72-3.01-6.72-6.72v-100.8c0-3.71,3.01-6.72,6.72-6.72h176.37c3.71,0,6.72,3.01,6.72,6.72v100.8c0,3.71-3.01,6.72-6.72,6.72Z"/>
              <g>
                <circle class="cls-26" cx="373.13" cy="161.73" r="3.41"/>
                <circle class="cls-7" cx="363.03" cy="161.73" r="3.41"/>
                <path class="cls-25" d="M356.33,161.73c0,1.88-1.53,3.41-3.41,3.41s-3.41-1.53-3.41-3.41,1.53-3.41,3.41-3.41,3.41,1.53,3.41,3.41Z"/>
              </g>
            </g>
          </g>
          <text class="cls-20" transform="translate(257.18 210.13)"><tspan x="0" y="0">cms</tspan></text>
          <g id="gear-3" data-name="gear">
            <path class="cls-17" d="M311.35,113.34c.44-.39.71-.63,1.15-1.02.13-.91.19-1.85.19-2.8s-.06-1.89-.19-2.8c-.44-.39-.71-.63-1.15-1.02h-3.9c-.83-.56-1.46-.98-2.29-1.54v-.03c.18-.99.33-1.72.53-2.71l2.75-2.75c.05-.57.08-.93.12-1.5-1.15-1.52-2.51-2.88-4.03-4.03-.57.05-.93.08-1.5.12l-2.75,2.75c-.99.2-1.72.34-2.71.54h-.03c-.56-.85-.98-1.47-1.53-2.31v-3.9c-.39-.44-.63-.71-1.02-1.15-.92-.13-1.85-.19-2.8-.19s-1.89.06-2.8.19c-.39.44-.63.71-1.02,1.15v3.97c-.53.8-.93,1.4-1.47,2.2l-.1.04c-.99-.2-1.72-.34-2.71-.54l-2.75-2.75c-.57-.05-.93-.08-1.5-.12-1.52,1.15-2.88,2.51-4.03,4.03.05.57.08.93.12,1.5l2.75,2.75c.2.99.34,1.72.54,2.71l-.04.1c-.8.54-1.4.93-2.2,1.47h-3.96c-.44.39-.71.63-1.15,1.02-.13.92-.19,1.85-.19,2.8s.06,1.88.19,2.8c.44.39.71.63,1.15,1.02h3.96c.8.53,1.4.93,2.2,1.47l.04.1c-.2.99-.34,1.72-.54,2.71l-2.75,2.75c-.05.57-.08.93-.12,1.5,1.15,1.52,2.5,2.88,4.03,4.03.57-.05.93-.08,1.5-.12l2.75-2.75c.99-.2,1.72-.34,2.71-.54h.03c.56.85.97,1.47,1.53,2.31v3.9c.39.44.63.71,1.02,1.15.92.13,1.85.19,2.8.19s1.89-.06,2.8-.19c.39-.44.63-.71,1.02-1.15v-3.97c.53-.8.93-1.4,1.47-2.2l.1-.04c.99.2,1.72.34,2.71.54l2.75,2.75c.57.05.93.08,1.5.12,1.52-1.15,2.88-2.51,4.03-4.03-.05-.57-.08-.93-.12-1.5l-2.75-2.75c-.2-.99-.34-1.72-.54-2.71v-.03c.85-.56,1.47-.98,2.31-1.54h3.89ZM292.18,113.65c-2.29,0-4.14-1.85-4.14-4.14s1.85-4.14,4.14-4.14,4.14,1.85,4.14,4.14-1.85,4.14-4.14,4.14Z"/>
          </g>
          <g id="file_copy" data-name="file copy">
            <g>
              <g>
                <rect class="cls-6" x="236.35" y="325.08" width="27.69" height="36.14"/>
                <rect class="cls-14" x="230.59" y="319.32" width="27.69" height="36.14"/>
                <rect class="cls-23" x="224.44" y="313.17" width="27.69" height="36.14"/>
              </g>
              <polygon class="cls-9" points="264.04 341.93 224.44 341.93 224.44 342.36 264.04 343.85 264.04 341.93"/>
              <rect class="cls-10" x="223.08" y="336.96" width="41.7" height="4.97"/>
            </g>
          </g>
          <g id="Artwork_3" data-name="Artwork 3">
            <g>
              <g>
                <path class="cls-11" d="M60.38,204.73c-4.92,4.92-12.88,4.92-17.8,0s-4.91-12.88,0-17.8c4.92-4.91,12.88-4.91,17.8,0,4.92,4.91,4.92,12.88,0,17.8Z"/>
                <path class="cls-23" d="M29.51,212.38l18.93-18.93c1.6-1.6,4.19-1.6,5.78,0h0c1.6,1.6,1.6,4.19,0,5.78l-14.45,14.45,9.65,9.65c2.93,2.93,2.93,7.67,0,10.6l-11.39,11.39c-.99.99-2.33,1.54-3.72,1.54h0c-1.4,0-2.74.55-3.72,1.54l-2,2c-2.68,2.68-7.04,2.68-9.72,0l-5.99-5.99c-2.68-2.68-2.68-7.04,0-9.72l1.56-1.56c.99-.99,1.54-2.33,1.54-3.73v-2.29c0-.37.04-.73.11-1.09l4.8-22.7h0c4.04.19,7.43,3.11,8.22,7.08l.4,1.98Z"/>
              </g>
              <rect class="cls-17" x="34.51" y="215.88" width="6.6" height="1.06" transform="translate(-141.94 90.1) rotate(-45)"/>
              <rect class="cls-17" x="39.14" y="220.48" width="6.6" height="1.06" transform="translate(-143.85 94.75) rotate(-45)"/>
              <rect class="cls-17" x="43.77" y="225.11" width="6.6" height="1.06" transform="translate(-145.76 99.37) rotate(-45)"/>
            </g>
          </g>
          <g>
            <g id="pencil_edit" data-name="pencil edit">
              <g>
                <path class="cls-5" d="M183.46,308.97h0c3.15,3.15,3.15,8.27,0,11.42l-36.1,36.1h-11.42v-11.42l36.1-36.1c3.15-3.15,8.27-3.15,11.42,0Z"/>
                <polygon class="cls-21" points="182.51 321.34 147.47 356.38 136.05 344.96 168.06 312.96 171.09 309.92 182.51 321.34"/>
                <polygon class="cls-21" points="135.94 350.02 142.41 356.49 135.94 356.49 135.94 350.02"/>
              </g>
            </g>
            <g id="paragraph">
              <g>
                <g>
                  <rect class="cls-21" x="59.85" y="311.84" width="20.98" height="2.98"/>
                  <rect class="cls-21" x="83.66" y="311.84" width="22.35" height="2.98"/>
                  <rect class="cls-21" x="107.46" y="311.84" width="18.55" height="2.98"/>
                  <rect class="cls-21" x="59.85" y="329.78" width="17.89" height="2.98"/>
                  <rect class="cls-21" x="79.56" y="329.78" width="15.98" height="2.98"/>
                  <polygon class="cls-21" points="124.6 332.7 97 332.77 97 329.78 124.6 329.72 124.6 332.7"/>
                  <rect class="cls-21" x="59.85" y="317.82" width="11.29" height="2.98"/>
                  <rect class="cls-21" x="73.97" y="317.82" width="43.98" height="2.98"/>
                  <rect class="cls-21" x="120.77" y="317.82" width="6.59" height="2.98"/>
                  <rect class="cls-21" x="59.85" y="323.8" width="20.98" height="2.98"/>
                  <rect class="cls-21" x="82.65" y="323.8" width="18.28" height="2.98"/>
                  <rect class="cls-21" x="103.75" y="323.8" width="15.82" height="2.98"/>
                </g>
                <g>
                  <rect class="cls-21" x="59.85" y="335.62" width="20.98" height="2.98"/>
                  <rect class="cls-21" x="83.66" y="335.62" width="22.35" height="2.98"/>
                  <rect class="cls-21" x="107.46" y="335.62" width="18.55" height="2.98"/>
                  <rect class="cls-21" x="59.85" y="353.57" width="17.89" height="2.98"/>
                  <rect class="cls-21" x="79.56" y="353.57" width="15.98" height="2.98"/>
                  <polygon class="cls-21" points="134.4 356.49 97 356.55 97 353.57 134.4 353.51 134.4 356.49"/>
                  <rect class="cls-21" x="59.85" y="341.61" width="11.29" height="2.98"/>
                  <rect class="cls-21" x="73.97" y="341.61" width="43.98" height="2.98"/>
                  <rect class="cls-21" x="120.77" y="341.61" width="6.59" height="2.98"/>
                  <rect class="cls-21" x="59.85" y="347.59" width="20.98" height="2.98"/>
                  <rect class="cls-21" x="82.65" y="347.59" width="18.28" height="2.98"/>
                  <rect class="cls-21" x="103.75" y="347.59" width="15.82" height="2.98"/>
                </g>
              </g>
            </g>
          </g>
          <g>
            <path class="cls-2" d="M42.24,329.75v-60.3c0-5.91,4.79-10.7,10.71-10.7h6.6"/>
            <path class="cls-4" d="M47.23,335.02c0,2.77-2.24,5.01-5.01,5.01s-5.01-2.24-5.01-5.01,2.24-5.01,5.01-5.01c2.77,0,5.01,2.24,5.01,5.01Z"/>
            <path class="cls-21" d="M44.36,335.02c0,1.18-.96,2.14-2.14,2.14s-2.14-.96-2.14-2.14.96-2.14,2.14-2.14c1.18,0,2.14.96,2.14,2.14Z"/>
          </g>
          <path class="cls-2" d="M283.85,293.36v28.1c0,8.76-7.1,15.86-15.86,15.86h0"/>
          <line class="cls-2" x1="223.25" y1="337.51" x2="169.9" y2="337.51"/>
          <path class="cls-12" d="M110.99,52.52H18.25c-4.79,0-8.67-3.88-8.67-8.67v-23.57c0-4.79,3.88-8.67,8.67-8.67h92.74c4.79,0,8.67,3.88,8.67,8.67v23.57c0,4.79-3.88,8.67-8.67,8.67Z"/>
          <path class="cls-23" d="M110.99,51.52H18.25c-4.79,0-8.67-3.88-8.67-8.67v-23.57c0-4.79,3.88-8.67,8.67-8.67h92.74c4.79,0,8.67,3.88,8.67,8.67v23.57c0,4.79-3.88,8.67-8.67,8.67Z"/>
          <text class="cls-18" transform="translate(30.83 43.42)"><tspan x="0" y="0">www</tspan></text>
          <g>
            <g>
              <g>
                <path class="cls-22" d="M323.3,219.64v5.97c0,1.4-1.13,2.53-2.52,2.53h-60.09c-.12,0-.24-.01-.36-.03-1.23-.17-2.17-1.22-2.17-2.5v-5.97c0-1.4,1.13-2.53,2.53-2.53h60.09c1.26,0,2.31.94,2.49,2.16.02.12.03.24.03.37Z"/>
                <path class="cls-10" d="M323.3,219.64v5.97c0,1.4-1.13,2.53-2.52,2.53h-60.09c-.12,0-.24-.01-.36-.03-.02-.12-.03-.24-.03-.36v-5.98c0-1.39,1.13-2.53,2.52-2.53h60.09c.12,0,.24.01.36.03.02.12.03.24.03.37Z"/>
              </g>
              <g>
                <path class="cls-22" d="M323.3,235.08v5.97c0,1.4-1.13,2.53-2.52,2.53h-60.09c-.12,0-.24-.01-.36-.03-1.23-.17-2.17-1.22-2.17-2.5v-5.97c0-1.4,1.13-2.53,2.53-2.53h60.09c1.26,0,2.31.94,2.49,2.16.02.12.03.24.03.37Z"/>
                <path class="cls-10" d="M323.3,235.08v5.97c0,1.4-1.13,2.53-2.52,2.53h-60.09c-.12,0-.24-.01-.36-.03-.02-.12-.03-.24-.03-.36v-5.98c0-1.39,1.13-2.53,2.52-2.53h60.09c.12,0,.24.01.36.03.02.12.03.24.03.37Z"/>
              </g>
            </g>
            <g>
              <path class="cls-17" d="M279.58,223.86c0,.7-.57,1.26-1.26,1.26s-1.26-.57-1.26-1.26.57-1.26,1.26-1.26c.7,0,1.26.57,1.26,1.26Z"/>
              <path class="cls-17" d="M286.41,223.86c0,.7-.57,1.26-1.26,1.26s-1.26-.57-1.26-1.26.57-1.26,1.26-1.26c.7,0,1.26.57,1.26,1.26Z"/>
              <path class="cls-17" d="M293.24,223.86c0,.7-.57,1.26-1.26,1.26s-1.26-.57-1.26-1.26.57-1.26,1.26-1.26c.7,0,1.26.57,1.26,1.26Z"/>
              <path class="cls-17" d="M300.07,223.86c0,.7-.57,1.26-1.26,1.26s-1.26-.57-1.26-1.26.57-1.26,1.26-1.26c.7,0,1.26.57,1.26,1.26Z"/>
              <path class="cls-17" d="M306.9,223.86c0,.7-.57,1.26-1.26,1.26s-1.26-.57-1.26-1.26.57-1.26,1.26-1.26c.7,0,1.26.57,1.26,1.26Z"/>
            </g>
            <g>
              <path class="cls-17" d="M279.58,238.61c0,.7-.57,1.26-1.26,1.26s-1.26-.57-1.26-1.26.57-1.26,1.26-1.26c.7,0,1.26.57,1.26,1.26Z"/>
              <circle class="cls-17" cx="285.15" cy="238.61" r="1.26"/>
              <path class="cls-17" d="M293.24,238.61c0,.7-.57,1.26-1.26,1.26s-1.26-.57-1.26-1.26.57-1.26,1.26-1.26c.7,0,1.26.57,1.26,1.26Z"/>
              <path class="cls-17" d="M300.07,238.61c0,.7-.57,1.26-1.26,1.26s-1.26-.57-1.26-1.26.57-1.26,1.26-1.26c.7,0,1.26.57,1.26,1.26Z"/>
              <path class="cls-17" d="M306.9,238.61c0,.7-.57,1.26-1.26,1.26s-1.26-.57-1.26-1.26.57-1.26,1.26-1.26c.7,0,1.26.57,1.26,1.26Z"/>
            </g>
          </g>
          <path class="cls-24" d="M293.47,86.23c0,.82-.67,1.49-1.49,1.49s-1.49-.67-1.49-1.49.67-1.49,1.49-1.49,1.49.67,1.49,1.49Z"/>
          <g id="Mouse_cursor_move" data-name="Mouse cursor move">
            <g id="mouse_cursor" data-name="mouse cursor">
              <path class="cls-21" d="M296.62,270.99l-27.81-16.9,10.08,30.94c.71,2.17,3.6,2.59,4.9.71l2.73-3.95c.39-.56,1.2-.58,1.62-.05l3.07,3.9c.69.88,1.96,1.02,2.83.33h0c.87-.69,1.02-1.95.33-2.82l-3.08-3.92c-.42-.53-.2-1.32.42-1.56l4.48-1.75c2.13-.83,2.38-3.74.43-4.93Z"/>
            </g>
          </g>
          <g id="Document">
            <g id="Artwork_6" data-name="Artwork 6">
              <g>
                <g>
                  <path class="cls-8" d="M384.09,95.25h-40.87V25.71h30.38c4.09,4.09,6.39,6.39,10.48,10.48v59.06Z"/>
                  <g>
                    <rect class="cls-21" x="349.07" y="34.72" width="29.23" height="2"/>
                    <rect class="cls-21" x="349.07" y="39.69" width="29.23" height="2"/>
                    <rect class="cls-21" x="349.07" y="44.66" width="29.23" height="2"/>
                    <rect class="cls-21" x="349.07" y="49.63" width="29.23" height="2"/>
                    <rect class="cls-21" x="349.07" y="54.6" width="29.23" height="2"/>
                    <rect class="cls-21" x="349.07" y="59.58" width="17.2" height="2"/>
                  </g>
                  <g>
                    <rect class="cls-21" x="349.07" y="69.58" width="29.23" height="2"/>
                    <rect class="cls-21" x="349.07" y="74.55" width="29.23" height="2"/>
                    <rect class="cls-21" x="349.07" y="79.52" width="29.23" height="2"/>
                    <rect class="cls-21" x="349.07" y="84.49" width="17.2" height="2"/>
                  </g>
                  <path class="cls-19" d="M384.09,36.19h-10.48v-10.48h0c4.09,4.09,6.39,6.39,10.48,10.48h0Z"/>
                </g>
                <g>
                  <path class="cls-23" d="M370.93,107.29h-40.87V37.75h30.38c4.09,4.09,6.39,6.39,10.48,10.48v59.06Z"/>
                  <g>
                    <rect class="cls-21" x="335.9" y="46.76" width="29.23" height="2"/>
                    <rect class="cls-21" x="335.9" y="51.73" width="29.23" height="2"/>
                    <rect class="cls-21" x="335.9" y="56.7" width="29.23" height="2"/>
                    <rect class="cls-21" x="335.9" y="61.67" width="29.23" height="2"/>
                    <rect class="cls-21" x="335.9" y="66.64" width="29.23" height="2"/>
                    <rect class="cls-21" x="335.9" y="71.61" width="17.2" height="2"/>
                  </g>
                  <g>
                    <rect class="cls-21" x="335.9" y="81.61" width="29.23" height="2"/>
                    <rect class="cls-21" x="335.9" y="86.59" width="29.23" height="2"/>
                    <rect class="cls-21" x="335.9" y="91.56" width="29.23" height="2"/>
                    <rect class="cls-21" x="335.9" y="96.53" width="17.2" height="2"/>
                  </g>
                  <path class="cls-23" d="M370.93,48.23h-10.48v-10.48h0c4.09,4.09,6.39,6.39,10.48,10.48h0Z"/>
                </g>
              </g>
            </g>
          </g>
          <g id="photo_image_picture" data-name="photo image picture">
            <g>
              <path class="cls-23" d="M380.17,344.72h-66.53c-1.67,0-3.02-1.35-3.02-3.02v-41.6c0-1.67,1.35-3.02,3.02-3.02h66.53c1.67,0,3.02,1.35,3.02,3.02v41.6c0,1.67-1.35,3.02-3.02,3.02Z"/>
              <path class="cls-17" d="M381.57,300.45v34.58c0,.67-.55,1.22-1.22,1.22h-66.89c-.67,0-1.21-.55-1.21-1.22v-34.58c0-.67.54-1.22,1.21-1.22h66.89c.67,0,1.22.55,1.22,1.22Z"/>
              <path class="cls-21" d="M381.57,328.84v6.19c0,.67-.55,1.22-1.22,1.22h-29.31l-4.13-15.34,1.59-1.59,10.65-10.66c.61-.61,1.61-.61,2.22,0l20.19,20.19Z"/>
              <polygon class="cls-8" points="371.22 336.25 351.04 336.25 346.92 320.91 348.51 319.32 371.22 336.25"/>
              <path class="cls-21" d="M364.28,336.25h-50.82c-.67,0-1.21-.54-1.21-1.21v-14.43l17.02-16.25c1.13-1.08,2.91-1.04,4,.07l31.01,31.81Z"/>
              <rect class="cls-17" x="367.04" y="338.95" width="14.47" height="1.78"/>
              <rect class="cls-17" x="361.83" y="338.95" width="3.66" height="1.78"/>
              <rect class="cls-17" x="351.81" y="338.95" width="8.92" height="1.78"/>
            </g>
          </g>
        </g>
        <circle class="cls-17" cx="374.13" cy="127.19" r="2.68"/>
        <path class="cls-23" d="M293.53,351.88c0,1.25-1.02,2.27-2.27,2.27s-2.27-1.02-2.27-2.27,1.02-2.27,2.27-2.27,2.27,1.01,2.27,2.27Z"/>
        <circle class="cls-17" cx="262.41" cy="298.28" r="1.86"/>
        <path class="cls-17" d="M21.85,277.88c0,1.59-1.29,2.89-2.89,2.89s-2.89-1.29-2.89-2.89,1.29-2.89,2.89-2.89,2.89,1.29,2.89,2.89Z"/>
        <path class="cls-17" d="M5.36,178.31c0,1.48-1.2,2.68-2.68,2.68s-2.68-1.2-2.68-2.68,1.2-2.68,2.68-2.68c1.48,0,2.68,1.2,2.68,2.68Z"/>
        <path class="cls-23" d="M37.1,70.51c0,1.37-1.11,2.47-2.47,2.47s-2.47-1.11-2.47-2.47,1.11-2.47,2.47-2.47c1.37,0,2.47,1.11,2.47,2.47Z"/>
        <path class="cls-17" d="M140.99,35.88c0,.91-.74,1.65-1.65,1.65s-1.65-.74-1.65-1.65.74-1.65,1.65-1.65c.91,0,1.65.74,1.65,1.65Z"/>
        <path class="cls-23" d="M268.39,63.09c0,1.14-.92,2.06-2.06,2.06s-2.06-.92-2.06-2.06.92-2.06,2.06-2.06c1.14,0,2.06.92,2.06,2.06Z"/>
        <path class="cls-17" d="M317.03,17.74c0,1.82-1.48,3.3-3.3,3.3s-3.3-1.48-3.3-3.3,1.48-3.3,3.3-3.3,3.3,1.48,3.3,3.3Z"/>
        <g id="_0" data-name="0">
          <path class="cls-17" d="M198.21,364.61h-2.12c-1.18,0-2.13-.95-2.13-2.13v-2.12c0-1.04-.69-1.99-1.71-2.19-1.37-.27-2.58.78-2.58,2.1v2.22c0,1.18-.95,2.13-2.13,2.13h-2.12c-1.04,0-1.99.69-2.19,1.71-.27,1.37.78,2.58,2.1,2.58h2.22c1.18,0,2.13.95,2.13,2.13v2.12c0,1.04.7,1.99,1.71,2.19,1.37.27,2.58-.78,2.58-2.1v-2.22c0-1.18.95-2.13,2.13-2.13h2.22c1.32,0,2.37-1.21,2.1-2.58-.2-1.02-1.16-1.71-2.19-1.71Z"/>
        </g>
        <g id="_0-2" data-name="0">
          <path class="cls-1" d="M268.84,4.31h-1.25c-.69,0-1.25-.56-1.25-1.25v-1.25c0-.61-.41-1.17-1.01-1.29-.8-.16-1.51.46-1.51,1.23v1.3c0,.69-.56,1.25-1.25,1.25h-1.25c-.61,0-1.17.41-1.29,1-.16.8.46,1.51,1.23,1.51h1.3c.69,0,1.25.56,1.25,1.25v1.25c0,.61.41,1.17,1.01,1.29.8.16,1.51-.46,1.51-1.23v-1.3c0-.69.56-1.25,1.25-1.25h1.3c.77,0,1.39-.71,1.23-1.51-.12-.6-.68-1-1.29-1Z"/>
        </g>
      </g>
    </g>
  </g>
</svg>