<?xml version="1.0" encoding="UTF-8"?>
<svg id="Capa_2" data-name="Capa 2" xmlns="http://www.w3.org/2000/svg" xmlns:xlink="http://www.w3.org/1999/xlink" viewBox="0 0 21.71 21.77">
  <defs>
    <style>
      .cls-1 {
        fill: url(#Degradado_sin_nombre_3-2);
        fill-rule: evenodd;
      }

      .cls-2 {
        fill: url(#Degradado_sin_nombre_3);
      }
    </style>
    <linearGradient id="Degradado_sin_nombre_3" data-name="Degradado sin nombre 3" x1="17.92" y1="-149.33" x2="2.28" y2="-133.69" gradientTransform="translate(0 -128.23) scale(1 -1)" gradientUnits="userSpaceOnUse">
      <stop offset="0" stop-color="#00fb73"/>
      <stop offset="1" stop-color="#00b25b"/>
    </linearGradient>
    <linearGradient id="Degradado_sin_nombre_3-2" data-name="Degradado sin nombre 3" x1="19.14" y1="-148.11" x2="3.5" y2="-132.47" xlink:href="#Degradado_sin_nombre_3"/>
  </defs>
  <g id="Capa_1-2" data-name="Capa 1">
    <g>
      <path class="cls-2" d="M0,21.77l1.56-5.82c-.88-1.59-1.35-3.38-1.35-5.19C.21,4.82,5.03,0,10.96,0s10.75,4.82,10.75,10.75-4.82,10.75-10.75,10.75c-1.78,0-3.54-.45-5.11-1.3l-5.85,1.57ZM6.14,18.02l.37.22c1.35.81,2.89,1.23,4.45,1.23,4.81,0,8.72-3.91,8.72-8.72S15.77,2.03,10.96,2.03,2.24,5.94,2.24,10.75c0,1.59.44,3.15,1.28,4.52l.23.37-.87,3.25,3.27-.88Z"/>
      <path class="cls-1" d="M14.96,12.25c-.44-.27-1.02-.56-1.54-.35-.4.16-.66.79-.91,1.11-.13.16-.29.19-.5.11-1.5-.6-2.65-1.6-3.48-2.98-.14-.22-.12-.38.05-.58.25-.29.56-.63.63-1.03.07-.4-.12-.86-.28-1.22-.21-.45-.44-1.1-.9-1.35-.42-.23-.96-.1-1.33.2-.64.52-.95,1.34-.94,2.15,0,.23.03.46.08.68.13.53.38,1.03.65,1.51.21.36.44.7.68,1.04.8,1.09,1.8,2.04,2.96,2.75.58.35,1.2.66,1.85.88.72.24,1.37.49,2.15.34.82-.15,1.62-.66,1.95-1.45.1-.23.14-.49.09-.74-.11-.51-.8-.81-1.21-1.06Z"/>
    </g>
  </g>
</svg>